# xmcd CD database file
#
# Track frame offsets:
#	150
#	19581
#	38573
#	56049
#	75465
#	94457
#
# Disc length: 1492 seconds
#
# Revision: 3
# Processed by: cddbd v1.5.2PL0 Copyright (c) Steve Scherf et al.
# Submitted via: CDex 1.70beta2
#
DISCID=3f05d206
DTITLE=AKB48 - チャンスの順番 (Type-B)
DYEAR=2010
DGENRE=Blues
TTITLE0=チャンスの順番
TTITLE1=予約したクリスマス
TTITLE2=ALIVE  (team K)
TTITLE3=チャンスの順番 off vocal ver.
TTITLE4=予約したクリスマス off vocal ver.
TTITLE5=ALIVE off vocal ver.
EXTD=YEAR: 2010
EXTT0=
EXTT1=
EXTT2=
EXTT3=
EXTT4=
EXTT5=
PLAYORDER=
